<?xml version="1.0" encoding="utf-8"?>
<!-- Generator: Adobe Illustrator 16.0.0, SVG Export Plug-In . SVG Version: 6.00 Build 0)  -->
<!DOCTYPE svg PUBLIC "-//W3C//DTD SVG 1.1//EN" "http://www.w3.org/Graphics/SVG/1.1/DTD/svg11.dtd">
<svg version="1.1" id="圖層_1" xmlns="http://www.w3.org/2000/svg" xmlns:xlink="http://www.w3.org/1999/xlink" x="0px" y="0px"
	 width="291px" height="289px" viewBox="0 0 291 289" enable-background="new 0 0 291 289" xml:space="preserve">
<linearGradient id="SVGID_1_" gradientUnits="userSpaceOnUse" x1="145.313" y1="288.8672" x2="145.313" y2="4.882813e-004">
	<stop  offset="0" style="stop-color:#FFFFFF;stop-opacity:0"/>
	<stop  offset="0" style="stop-color:#375656;stop-opacity:0.1"/>
	<stop  offset="0.7196" style="stop-color:#2F4F4F"/>
</linearGradient>
<path fill="url(#SVGID_1_)" d="M290.625,145.313C290.625,65.039,225.586,0,145.312,0C65.039,0,0,65.039,0,145.313
	c0,72.527,53.139,132.645,122.607,143.555V187.318H85.693v-42.006h36.914v-32.016c0-36.416,21.68-56.531,54.885-56.531
	c15.902,0,32.531,2.836,32.531,2.836v35.742h-18.328c-18.047,0-23.678,11.203-23.678,22.693v27.275h40.301l-6.445,42.006h-33.855
	v101.549C237.486,277.957,290.625,217.84,290.625,145.313z"/>
</svg>
