<?xml version="1.0" encoding="utf-8"?>
<!-- Generator: Adobe Illustrator 16.0.0, SVG Export Plug-In . SVG Version: 6.00 Build 0)  -->
<!DOCTYPE svg PUBLIC "-//W3C//DTD SVG 1.1//EN" "http://www.w3.org/Graphics/SVG/1.1/DTD/svg11.dtd">
<svg version="1.1" id="圖層_1" xmlns="http://www.w3.org/2000/svg" xmlns:xlink="http://www.w3.org/1999/xlink" x="0px" y="0px"
	 width="24px" height="24px" viewBox="0 0 24 24" enable-background="new 0 0 24 24" xml:space="preserve">
<linearGradient id="SVGID_1_" gradientUnits="userSpaceOnUse" x1="12.0005" y1="23.6816" x2="12.0005" y2="0.3179">
	<stop  offset="0" style="stop-color:#FFFFFF;stop-opacity:0"/>
	<stop  offset="0" style="stop-color:#375656;stop-opacity:0.1"/>
	<stop  offset="0.7196" style="stop-color:#2F4F4F"/>
</linearGradient>
<path fill="url(#SVGID_1_)" d="M10.671,0.4C5.18,0.997,0.762,5.414,0.164,10.788c-0.716,5.97,2.985,11.104,8.239,12.774v-2.746
	c0,0-0.478,0.119-1.074,0.119c-1.672,0-2.389-1.433-2.508-2.268c-0.119-0.479-0.359-0.836-0.716-1.193
	c-0.358-0.119-0.478-0.119-0.478-0.24c0-0.237,0.358-0.237,0.478-0.237c0.716,0,1.313,0.836,1.552,1.192
	c0.597,0.955,1.314,1.194,1.672,1.194c0.478,0,0.835-0.118,1.074-0.239c0.12-0.834,0.477-1.67,1.194-2.147
	C6.85,16.4,4.821,14.848,4.821,12.221c0-1.313,0.597-2.627,1.433-3.582c-0.119-0.24-0.239-0.836-0.239-1.672
	c0-0.477,0-1.194,0.359-1.91c0,0,1.671,0,3.343,1.552c0.597-0.239,1.433-0.358,2.269-0.358c0.834,0,1.67,0.12,2.388,0.358
	c1.554-1.552,3.345-1.552,3.345-1.552c0.236,0.716,0.236,1.433,0.236,1.91c0,0.955-0.118,1.433-0.236,1.672
	c0.834,0.955,1.432,2.149,1.432,3.582c0,2.627-2.028,4.18-4.775,4.776c0.716,0.597,1.193,1.672,1.193,2.746v3.938
	c4.896-1.552,8.357-6.089,8.357-11.342C23.926,5.176,17.836-0.436,10.671,0.4z"/>
</svg>
