<?xml version="1.0" encoding="utf-8"?>
<!-- Generator: Adobe Illustrator 16.0.0, SVG Export Plug-In . SVG Version: 6.00 Build 0)  -->
<!DOCTYPE svg PUBLIC "-//W3C//DTD SVG 1.1//EN" "http://www.w3.org/Graphics/SVG/1.1/DTD/svg11.dtd">
<svg version="1.1" id="圖層_1" xmlns="http://www.w3.org/2000/svg" xmlns:xlink="http://www.w3.org/1999/xlink" x="0px" y="0px"
	 width="300px" height="300px" viewBox="0 0 300 300" enable-background="new 0 0 300 300" xml:space="preserve">
<linearGradient id="SVGID_1_" gradientUnits="userSpaceOnUse" x1="150.0005" y1="300" x2="150.0005" y2="4.882813e-004">
	<stop  offset="0" style="stop-color:#FFFFFF;stop-opacity:0"/>
	<stop  offset="0" style="stop-color:#375656;stop-opacity:0.1"/>
	<stop  offset="0.7196" style="stop-color:#2F4F4F"/>
</linearGradient>
<path fill="url(#SVGID_1_)" d="M150.033,73.084c-42.564,0-76.898,34.341-76.898,76.916s34.334,76.916,76.898,76.916
	c42.567,0,76.901-34.341,76.901-76.916S192.6,73.084,150.033,73.084z M150.033,200.006c-27.507,0-49.994-22.426-49.994-50.006
	s22.421-50.006,49.994-50.006c27.575,0,49.995,22.426,49.995,50.006S177.54,200.006,150.033,200.006L150.033,200.006z
	 M248.016,69.938c0,9.975-8.033,17.94-17.938,17.94c-9.973,0-17.936-8.033-17.936-17.94s8.03-17.94,17.936-17.94
	C239.982,51.997,248.016,60.03,248.016,69.938z M298.945,88.146c-1.137-24.032-6.625-45.319-24.227-62.858
	C257.184,7.749,235.9,2.259,211.874,1.054c-24.763-1.406-98.985-1.406-123.748,0C64.167,2.192,42.883,7.682,25.282,25.221
	C7.68,42.759,2.259,64.047,1.054,88.079c-1.405,24.768-1.405,99.007,0,123.774c1.138,24.032,6.625,45.32,24.228,62.859
	c17.602,17.538,38.817,23.028,62.844,24.233c24.763,1.405,98.985,1.405,123.748,0c24.026-1.138,45.31-6.628,62.845-24.233
	c17.534-17.539,23.021-38.827,24.227-62.859C300.352,187.086,300.352,112.914,298.945,88.146L298.945,88.146z M266.955,238.43
	c-5.221,13.121-15.326,23.229-28.512,28.518c-19.742,7.833-66.592,6.024-88.411,6.024c-21.818,0-68.733,1.741-88.41-6.024
	c-13.118-5.221-23.224-15.329-28.511-28.518c-7.83-19.748-6.023-66.606-6.023-88.43s-1.74-68.749,6.023-88.43
	c5.221-13.121,15.327-23.229,28.511-28.517c19.744-7.833,66.592-6.025,88.41-6.025c21.819,0,68.735-1.741,88.411,6.025
	c13.119,5.221,23.225,15.33,28.512,28.517c7.83,19.748,6.023,66.607,6.023,88.43S274.785,218.749,266.955,238.43z"/>
</svg>
