<?xml version="1.0" encoding="utf-8"?>
<!-- Generator: Adobe Illustrator 16.0.0, SVG Export Plug-In . SVG Version: 6.00 Build 0)  -->
<!DOCTYPE svg PUBLIC "-//W3C//DTD SVG 1.1//EN" "http://www.w3.org/Graphics/SVG/1.1/DTD/svg11.dtd">
<svg version="1.1" id="圖層_1" xmlns="http://www.w3.org/2000/svg" xmlns:xlink="http://www.w3.org/1999/xlink" x="0px" y="0px"
	 width="256px" height="146px" viewBox="0 0 256 146" enable-background="new 0 0 256 146" xml:space="preserve">
<g>
	<linearGradient id="SVGID_1_" gradientUnits="userSpaceOnUse" x1="128.0005" y1="145.3906" x2="128.0005" y2="4.882813e-004">
		<stop  offset="0" style="stop-color:#FFFFFF;stop-opacity:0"/>
		<stop  offset="0.2751" style="stop-color:#375656;stop-opacity:0.5"/>
		<stop  offset="0.746" style="stop-color:#2F4F4F"/>
	</linearGradient>
	<path fill="url(#SVGID_1_)" d="M72.201,0c39.876,0,72.199,32.548,72.199,72.696c0,40.147-32.325,72.694-72.199,72.694
		C32.328,145.391,0,112.844,0,72.696C0,32.548,32.325,0,72.201,0z M187.5,4.258c19.938,0,36.102,30.638,36.102,68.438h0.002
		c0,37.79-16.162,68.438-36.101,68.438c-19.938,0-36.101-30.648-36.101-68.438C151.402,34.906,167.563,4.258,187.5,4.258z
		 M243.303,11.387c7.012,0,12.697,27.449,12.697,61.31c0,33.851-5.684,61.31-12.697,61.31c-7.012,0-12.693-27.451-12.693-61.31
		S236.293,11.387,243.303,11.387z"/>
</g>
</svg>
