<?xml version="1.0" encoding="utf-8"?>
<!-- Generator: Adobe Illustrator 16.0.0, SVG Export Plug-In . SVG Version: 6.00 Build 0)  -->
<!DOCTYPE svg PUBLIC "-//W3C//DTD SVG 1.1//EN" "http://www.w3.org/Graphics/SVG/1.1/DTD/svg11.dtd">
<svg version="1.1" id="圖層_1" xmlns="http://www.w3.org/2000/svg" xmlns:xlink="http://www.w3.org/1999/xlink" x="0px" y="0px"
	 width="256px" height="146px" viewBox="0 0 256 146" enable-background="new 0 0 256 146" xml:space="preserve">
<g>
	
		<linearGradient id="SVGID_1_" gradientUnits="userSpaceOnUse" x1="417.6006" y1="-411.23" x2="417.6006" y2="-265.8398" gradientTransform="matrix(1 0 0 -1 -289.5996 -265.8398)">
		<stop  offset="0" style="stop-color:#FFFFFF;stop-opacity:0"/>
		<stop  offset="0" style="stop-color:#375656;stop-opacity:0.1"/>
		<stop  offset="0.7196" style="stop-color:#2F4F4F"/>
	</linearGradient>
	<path fill="url(#SVGID_1_)" d="M72.201,0C112.077,0,144.4,32.548,144.4,72.696c0,40.147-32.325,72.695-72.199,72.695
		C32.328,145.391,0,112.844,0,72.696S32.325,0,72.201,0z M187.5,4.258c19.938,0,36.102,30.638,36.102,68.438h0.002
		c0,37.791-16.162,68.438-36.101,68.438s-36.101-30.647-36.101-68.438C151.402,34.906,167.563,4.258,187.5,4.258z M243.303,11.387
		c7.012,0,12.697,27.449,12.697,61.31c0,33.851-5.684,61.31-12.697,61.31c-7.012,0-12.693-27.45-12.693-61.31
		S236.293,11.387,243.303,11.387z"/>
</g>
</svg>
