<?xml version="1.0" encoding="utf-8"?>
<!-- Generator: Adobe Illustrator 16.0.0, SVG Export Plug-In . SVG Version: 6.00 Build 0)  -->
<!DOCTYPE svg PUBLIC "-//W3C//DTD SVG 1.1//EN" "http://www.w3.org/Graphics/SVG/1.1/DTD/svg11.dtd">
<svg version="1.1" id="圖層_1" xmlns="http://www.w3.org/2000/svg" xmlns:xlink="http://www.w3.org/1999/xlink" x="0px" y="0px"
	 width="24px" height="24px" viewBox="0 0 24 24" enable-background="new 0 0 24 24" xml:space="preserve">
<path fill="#FFFFFF" d="M10.671,0.4C5.18,0.997,0.762,5.414,0.164,10.788c-0.716,5.97,2.985,11.104,8.239,12.775v-2.746
	c0,0-0.478,0.119-1.074,0.119c-1.672,0-2.389-1.433-2.508-2.268c-0.119-0.479-0.359-0.836-0.716-1.194
	c-0.358-0.119-0.478-0.119-0.478-0.239c0-0.238,0.358-0.238,0.478-0.238c0.716,0,1.313,0.836,1.552,1.193
	c0.597,0.955,1.314,1.194,1.672,1.194c0.478,0,0.835-0.119,1.074-0.239c0.12-0.835,0.477-1.671,1.194-2.148
	C6.85,16.4,4.821,14.848,4.821,12.221c0-1.313,0.597-2.627,1.433-3.582C6.135,8.399,6.015,7.803,6.015,6.967
	c0-0.477,0-1.194,0.359-1.91c0,0,1.671,0,3.343,1.552c0.597-0.239,1.433-0.358,2.269-0.358c0.834,0,1.671,0.12,2.388,0.358
	c1.553-1.552,3.344-1.552,3.344-1.552c0.237,0.716,0.237,1.433,0.237,1.91c0,0.955-0.118,1.433-0.237,1.672
	c0.835,0.955,1.433,2.149,1.433,3.582c0,2.627-2.029,4.18-4.776,4.776c0.716,0.597,1.193,1.672,1.193,2.746v3.939
	c4.896-1.552,8.358-6.089,8.358-11.342C23.925,5.176,17.836-0.436,10.671,0.4z"/>
</svg>
